<svg width="40" height="40" viewBox="0 0 40 40" fill="none" xmlns="http://www.w3.org/2000/svg">
<rect width="40" height="40" rx="20" fill="#F5F5F5"/>
<path d="M10 16L11.304 17.043C11.7583 17.4064 12.2864 17.6662 12.8514 17.8046C13.4164 17.9429 14.0048 17.9563 14.5756 17.8438C15.1463 17.7314 15.6857 17.4958 16.1561 17.1535C16.6264 16.8113 17.0165 16.3705 17.299 15.862L20 11L22.701 15.862C22.9836 16.3704 23.3737 16.8111 23.8441 17.1533C24.3145 17.4955 24.8539 17.7309 25.4247 17.8433C25.9954 17.9556 26.5838 17.9421 27.1488 17.8037C27.7138 17.6653 28.2418 17.4054 28.696 17.042L30 16L28.246 24.77C28.1694 25.1527 28.0065 25.5129 27.7696 25.8231C27.5327 26.1333 27.2281 26.3854 26.879 26.56C24.7432 27.628 22.388 28.184 20 28.184C17.612 28.184 15.2568 27.628 13.121 26.56C12.7719 26.3854 12.4673 26.1333 12.2304 25.8231C11.9935 25.5129 11.8306 25.1527 11.754 24.77L10 16Z" stroke="#1D1E25" stroke-width="2" stroke-linecap="round" stroke-linejoin="round"/>
<path d="M16 23C18.596 24.333 21.404 24.333 24 23" stroke="#1D1E25" stroke-width="2" stroke-linecap="round" stroke-linejoin="round"/>
</svg>
