<svg width="20" height="20" viewBox="0 0 20 20" fill="none" xmlns="http://www.w3.org/2000/svg">
<path fill-rule="evenodd" clip-rule="evenodd" d="M10 19.6C15.302 19.6 19.6 15.302 19.6 10C19.6 4.69809 15.302 0.400024 10 0.400024C4.69809 0.400024 0.400024 4.69809 0.400024 10C0.400024 15.302 4.69809 19.6 10 19.6ZM14.4486 8.44855C14.9172 7.97992 14.9172 7.22013 14.4486 6.7515C13.9799 6.28287 13.2201 6.28287 12.7515 6.7515L8.80002 10.703L7.24855 9.1515C6.77992 8.68287 6.02013 8.68287 5.5515 9.1515C5.08287 9.62013 5.08287 10.3799 5.5515 10.8486L7.9515 13.2486C8.42013 13.7172 9.17992 13.7172 9.64855 13.2486L14.4486 8.44855Z" fill="#7E8492"/>
</svg>
