<svg width="98" height="30" viewBox="0 0 98 30" fill="none" xmlns="http://www.w3.org/2000/svg">
<g clip-path="url(#clip0_1_2679)">
<path d="M28.2892 21.2616C28.1372 20.896 27.9946 20.5116 27.8425 20.1835L27.1392 18.6178L27.1107 18.5897C25.0198 14.0897 22.7864 9.51472 20.4199 5.01472L20.3248 4.82722C20.0872 4.38659 19.8496 3.89909 19.6025 3.44909C19.2984 2.91472 19.0038 2.34284 18.5191 1.79909C18.0466 1.23015 17.452 0.77177 16.7781 0.45702C16.1043 0.14227 15.368 -0.0209961 14.6224 -0.0209961C13.8768 -0.0209961 13.1406 0.14227 12.4667 0.45702C11.7928 0.77177 11.1982 1.23015 10.7258 1.79909C10.2791 2.34284 9.94643 2.91472 9.6423 3.44909C9.4047 3.93659 9.1671 4.41472 8.92 4.85534L8.82496 5.04284C6.49647 9.54284 4.225 14.1178 2.13411 18.6178L2.07709 18.6741C1.868 19.1616 1.6209 19.6678 1.3833 20.2116C1.23123 20.5397 1.07917 20.896 0.927102 21.2897C0.516558 22.3208 0.385459 23.4396 0.546724 24.5358C0.707989 25.632 1.15605 26.6679 1.84675 27.5414C2.53746 28.4148 3.44696 29.0956 4.48563 29.5167C5.52429 29.9378 6.65628 30.0847 7.77001 29.9428C8.83776 29.8042 9.86591 29.4534 10.7923 28.9116C12.0278 28.2272 13.2158 27.2335 14.5464 25.7991C15.877 27.2335 17.0935 28.2272 18.3005 28.921C19.4612 29.593 20.7757 29.9639 22.1211 29.9991C23.6791 30.0055 25.1869 29.4556 26.3661 28.451C27.5452 27.4464 28.3161 26.0549 28.5363 24.5335C28.7909 23.4401 28.7048 22.2965 28.2892 21.2522V21.2616ZM14.6414 22.8178C13.0067 20.7553 11.9423 18.8616 11.5811 17.2397C11.4315 16.6387 11.3992 16.0151 11.4861 15.4022C11.5526 14.9241 11.7332 14.5022 11.9803 14.146C12.5505 13.3303 13.5485 12.8241 14.6414 12.8241C15.1605 12.8085 15.6753 12.9202 16.1398 13.1493C16.6043 13.3783 17.0038 13.7176 17.3026 14.1366C17.5497 14.5116 17.7302 14.9241 17.7873 15.4022C17.8823 15.946 17.8443 16.5741 17.6922 17.2397C17.3311 18.8335 16.2666 20.746 14.6414 22.8178ZM26.7496 24.2053C26.6416 24.9778 26.3303 25.7088 25.8467 26.3257C25.3631 26.9425 24.7241 27.4236 23.9934 27.721C23.2711 28.021 22.4728 28.1053 21.6934 28.021C20.9331 27.9272 20.1728 27.6835 19.3934 27.2335C18.0995 26.4446 16.9359 25.4644 15.9435 24.3272C17.9393 21.8897 19.1463 19.6678 19.6025 17.6897C19.8211 16.7522 19.8496 15.9085 19.7546 15.1303C19.6359 14.3928 19.3571 13.6893 18.9373 13.0678C18.4579 12.394 17.818 11.8467 17.0739 11.474C16.3298 11.1013 15.5043 10.9146 14.6699 10.9303C12.9117 10.9303 11.3435 11.7366 10.3931 13.0585C9.96529 13.6783 9.68879 14.3875 9.58528 15.1303C9.46173 15.9178 9.49024 16.7897 9.73734 17.6897C10.1935 19.6678 11.4291 21.9178 13.3964 24.346C12.4208 25.5049 11.2545 26.4937 9.94643 27.271C9.1576 27.721 8.40678 27.9553 7.64646 28.0491C6.46404 28.1985 5.26964 27.8815 4.32286 27.167C3.37608 26.4525 2.75345 25.3983 2.59031 24.2335C2.49527 23.4835 2.5618 22.7335 2.86593 21.8897C2.96097 21.5897 3.10353 21.2897 3.25559 20.9335C3.46468 20.446 3.71178 19.9397 3.94939 19.4335L3.9874 19.3678C6.04027 14.896 8.28323 10.3303 10.6117 5.85847L10.7068 5.67097C10.9444 5.22097 11.182 4.74284 11.4291 4.29284C11.6762 3.81472 11.9423 3.35534 12.2844 2.98034C12.5806 2.63161 12.9506 2.35116 13.3685 2.15873C13.7864 1.96631 14.242 1.86658 14.7032 1.86658C15.1644 1.86658 15.62 1.96631 16.0379 2.15873C16.4558 2.35116 16.8258 2.63161 17.122 2.98034C17.4546 3.35534 17.7302 3.81472 17.9773 4.29284C18.2149 4.74284 18.4525 5.23034 18.6997 5.67097L18.7947 5.85847C21.1137 10.3303 23.3566 14.896 25.4475 19.3678L25.476 19.396C25.7231 19.8835 25.9322 20.4272 26.1698 20.896C26.3219 21.2616 26.474 21.5522 26.569 21.8616C26.7496 22.7053 26.8446 23.4553 26.7496 24.2053ZM39.9792 22.6116C39.263 22.6219 38.5537 22.4731 37.9038 22.1761C37.2539 21.8791 36.6802 21.4416 36.2251 20.896C35.2025 19.7334 34.6598 18.2345 34.7045 16.696C34.6888 15.124 35.249 13.5993 36.2821 12.4022C36.76 11.8497 37.3548 11.4072 38.0248 11.1059C38.6947 10.8046 39.4235 10.6519 40.1598 10.6585C40.8525 10.6398 41.5388 10.7952 42.1539 11.11C42.7691 11.4249 43.2929 11.8889 43.6763 12.4585L43.7713 10.9866H46.5465V22.3116H43.7618L43.6668 20.6616C43.2715 21.2697 42.7253 21.7681 42.0799 22.1094C41.4345 22.4507 40.7114 22.6235 39.9792 22.6116ZM40.7015 19.9116C41.2527 19.9116 41.7374 19.7616 42.1936 19.4897C42.6118 19.1897 42.954 18.796 43.2201 18.3178C43.4577 17.8397 43.5812 17.2678 43.5812 16.6303C43.6183 16.0767 43.509 15.523 43.2641 15.0234C43.0192 14.5238 42.6471 14.0955 42.1841 13.7803C41.7393 13.5069 41.2256 13.362 40.7015 13.362C40.1774 13.362 39.6637 13.5069 39.2189 13.7803C38.8007 14.0803 38.4585 14.4741 38.1924 14.9522C37.9411 15.4795 37.8175 16.0572 37.8313 16.6397C37.7942 17.1934 37.9035 17.7471 38.1484 18.2467C38.3933 18.7462 38.7654 19.1745 39.2284 19.4897C39.6751 19.7616 40.1598 19.9116 40.7015 19.9116ZM51.2985 7.93034C51.2985 8.25847 51.2415 8.55847 51.0894 8.80222C50.9373 9.03659 50.7283 9.25222 50.4526 9.40222C50.177 9.55222 49.8824 9.60847 49.5783 9.60847C49.2741 9.60847 48.97 9.55222 48.6944 9.40222C48.4337 9.25907 48.2145 9.05252 48.0576 8.80222C47.9104 8.53516 47.8383 8.23415 47.8485 7.93034C47.8485 7.59284 47.9151 7.29284 48.0576 7.05847C48.2097 6.77722 48.4283 6.60847 48.6944 6.45847C48.97 6.30847 49.2646 6.24284 49.5783 6.24284C49.8808 6.23597 50.1799 6.30664 50.4465 6.44796C50.713 6.58928 50.9378 6.79641 51.0989 7.04909C51.2372 7.32242 51.3057 7.62494 51.2985 7.93034ZM48.0671 22.2741V10.9678H51.0894V22.2928H48.0576L48.0671 22.2741ZM59.1678 13.9303V13.9678C59.0253 13.9022 58.8352 13.8741 58.6926 13.846C58.5026 13.8085 58.3505 13.8085 58.1699 13.8085C57.3241 13.8085 56.6873 14.0522 56.2691 14.5585C55.8129 15.0741 55.6038 15.796 55.6038 16.7241V22.2835H52.572V10.9585H55.3567L55.4518 12.6741C55.7559 12.0741 56.117 11.6241 56.6303 11.2866C57.1408 10.9587 57.7417 10.7949 58.3505 10.8178C58.5691 10.8178 58.7782 10.8366 58.9588 10.8741C59.0538 10.9022 59.1108 10.9022 59.1678 10.9303V13.9303ZM60.3844 22.2741V6.31784H63.4067V12.4116C63.8343 11.8678 64.319 11.446 64.9273 11.1178C65.8902 10.6521 66.9842 10.52 68.0326 10.7428C69.081 10.9657 70.0227 11.5304 70.7057 12.346C71.7306 13.5109 72.2734 15.0136 72.2264 16.5553C72.242 18.1273 71.6818 19.6521 70.6487 20.8491C70.1709 21.4016 69.576 21.8441 68.9061 22.1454C68.2361 22.4467 67.5073 22.5994 66.7711 22.5928C66.0783 22.6115 65.3921 22.4562 64.7769 22.1413C64.1618 21.8264 63.6379 21.3624 63.2546 20.7928L63.1595 22.2647L60.3844 22.2928V22.2741ZM66.2293 19.9116C66.7711 19.9116 67.2558 19.7616 67.712 19.4897C68.1302 19.1897 68.4723 18.796 68.7384 18.3178C68.9855 17.8397 69.0996 17.2678 69.0996 16.6303C69.0996 16.0022 68.9855 15.4303 68.7384 14.9522C68.4888 14.4912 68.1382 14.0909 67.712 13.7803C67.2671 13.5069 66.7535 13.362 66.2293 13.362C65.7052 13.362 65.1916 13.5069 64.7467 13.7803C64.319 14.0803 63.9864 14.4741 63.7108 14.9522C63.4594 15.4795 63.3358 16.0572 63.3496 16.6397C63.3126 17.1934 63.4218 17.7471 63.6667 18.2467C63.9116 18.7462 64.2837 19.1745 64.7467 19.4897C65.1934 19.7616 65.6781 19.9116 66.2293 19.9116ZM73.3669 22.2835V10.9585H76.1516L76.2466 12.4303C76.5965 11.8661 77.0929 11.4044 77.6844 11.0929C78.2759 10.7814 78.9411 10.6314 79.611 10.6585C80.3771 10.6454 81.1302 10.8555 81.7759 11.2623C82.4216 11.6692 82.9315 12.2548 83.2416 12.946C83.5742 13.6585 83.7548 14.5397 83.7548 15.5241V22.3116H80.723V15.9178C80.723 15.1303 80.5424 14.5116 80.1813 14.0522C79.8201 13.6022 79.3259 13.3585 78.6986 13.3585C78.2424 13.3585 77.8433 13.4522 77.4916 13.6585C77.159 13.8741 76.8834 14.146 76.6743 14.5303C76.4629 14.9189 76.358 15.3552 76.3702 15.796V22.2835H73.3669ZM85.2659 22.2835V6.30847H88.2977V12.4022C88.7084 11.8554 89.2426 11.4106 89.8579 11.103C90.4733 10.7955 91.1529 10.6336 91.8427 10.6303C92.5589 10.62 93.2682 10.7689 93.9181 11.0659C94.568 11.3629 95.1418 11.8004 95.5968 12.346C96.6143 13.5108 97.1534 15.009 97.108 16.546C97.1245 18.1181 96.5641 19.6431 95.5303 20.8397C95.0524 21.3923 94.4576 21.8348 93.7876 22.136C93.1177 22.4373 92.3889 22.59 91.6526 22.5835C90.9599 22.6022 90.2736 22.4468 89.6585 22.1319C89.0433 21.817 88.5195 21.353 88.1362 20.7835L88.0506 22.2553L85.2659 22.2835ZM91.1394 19.9116C91.6907 19.9116 92.1754 19.7616 92.6221 19.4897C93.0497 19.1897 93.3824 18.796 93.658 18.3178C93.8956 17.8397 94.0191 17.2678 94.0191 16.6303C94.0562 16.0767 93.9469 15.523 93.702 15.0234C93.4572 14.5238 93.085 14.0955 92.6221 13.7803C92.1772 13.5069 91.6636 13.362 91.1394 13.362C90.6153 13.362 90.1016 13.5069 89.6568 13.7803C89.2386 14.0803 88.8965 14.4741 88.6304 14.9522C88.3651 15.4748 88.2407 16.056 88.2692 16.6397C88.2322 17.1934 88.3414 17.7471 88.5863 18.2467C88.8312 18.7462 89.2033 19.1745 89.6663 19.4897C90.113 19.7616 90.5692 19.9116 91.1394 19.9116Z" fill="#FF385C"/>
</g>
<defs>
<clipPath id="clip0_1_2679">
<rect width="96.9412" height="30" fill="white" transform="translate(0.5)"/>
</clipPath>
</defs>
</svg>
