<svg width="98" height="30" viewBox="0 0 98 30" fill="none" xmlns="http://www.w3.org/2000/svg">
<g clip-path="url(#clip0_1_2683)">
<path fill-rule="evenodd" clip-rule="evenodd" d="M60.6404 23.461C55.0069 27.725 46.8416 30.0001 39.8115 30.0001C29.9541 30.0001 21.0799 26.256 14.3662 20.0289C13.8387 19.5393 14.3113 18.8719 14.9443 19.2533C22.1897 23.5823 31.1483 26.1867 40.4023 26.1867C46.6433 26.1867 53.5089 24.8607 59.8217 22.109C60.7754 21.693 61.5729 22.7503 60.6404 23.461Z" fill="#FF9900"/>
<path fill-rule="evenodd" clip-rule="evenodd" d="M62.9827 20.7093C62.2653 19.7646 58.2228 20.2629 56.4083 20.4839C55.8555 20.5533 55.7711 20.0593 56.269 19.7039C59.4887 17.3769 64.7719 18.0486 65.388 18.8286C66.004 19.6129 65.2276 25.0513 62.202 27.647C61.7379 28.0457 61.2948 27.8333 61.5015 27.3047C62.1809 25.5627 63.7043 21.6583 62.9827 20.7093Z" fill="#FF9900"/>
<path fill-rule="evenodd" clip-rule="evenodd" d="M56.5347 3.27617V1.01414C56.5347 0.671807 56.7879 0.442139 57.0918 0.442139H66.9534C67.2699 0.442139 67.5231 0.676141 67.5231 1.01414V2.95116C67.5189 3.27617 67.253 3.70084 66.7804 4.37251L61.6702 11.8649C63.5691 11.8173 65.5735 12.1076 67.2952 13.1043C67.6834 13.3296 67.7889 13.6589 67.8185 13.9839V16.3976C67.8185 16.727 67.464 17.1126 67.0927 16.9133C64.0586 15.2796 60.0287 15.102 56.674 16.9306C56.3322 17.1213 55.9735 16.74 55.9735 16.4106V14.1183C55.9735 13.7499 55.9777 13.1216 56.3364 12.5626L62.2568 3.84384H57.1044C56.7879 3.84384 56.5347 3.61417 56.5347 3.27617Z" fill="#1D1E25"/>
<path fill-rule="evenodd" clip-rule="evenodd" d="M20.5608 17.3898H17.5606C17.2736 17.3681 17.0458 17.1471 17.0247 16.8654V1.05296C17.0247 0.73662 17.2821 0.485282 17.6028 0.485282H20.4005C20.6917 0.498274 20.9237 0.727951 20.9448 1.01395V3.08098H20.9997C21.7297 1.08329 23.1012 0.151611 24.9494 0.151611C26.8272 0.151611 28.0003 1.08329 28.8443 3.08098C29.5701 1.08329 31.22 0.151611 32.9881 0.151611C34.2456 0.151611 35.6213 0.684617 36.461 1.88063C37.4105 3.21097 37.2163 5.14366 37.2163 6.83801L37.2121 16.8178C37.2121 17.1341 36.9547 17.3898 36.634 17.3898H33.638C33.3384 17.3681 33.0978 17.1211 33.0978 16.8178V8.43703C33.0978 7.76969 33.1569 6.10567 33.0134 5.473C32.7898 4.41132 32.1188 4.11232 31.2496 4.11232C30.5238 4.11232 29.7642 4.61066 29.4562 5.408C29.1481 6.20534 29.1776 7.54002 29.1776 8.43703V16.8178C29.1776 17.1341 28.9202 17.3898 28.5995 17.3898H25.6035C25.2997 17.3681 25.0634 17.1211 25.0634 16.8178L25.0591 8.43703C25.0591 6.67334 25.3419 4.07765 23.2109 4.07765C21.0546 4.07765 21.139 6.60834 21.139 8.43703V16.8178C21.139 17.1341 20.8815 17.3898 20.5608 17.3898" fill="#1D1E25"/>
<path fill-rule="evenodd" clip-rule="evenodd" d="M76.013 0.151611C80.4649 0.151611 82.8744 4.07765 82.8744 9.06971C82.8744 13.8928 80.2117 17.7191 76.013 17.7191C71.6413 17.7191 69.2614 13.7931 69.2614 8.9007C69.2614 3.97798 71.6709 0.151611 76.013 0.151611ZM76.0383 3.37998C73.8272 3.37998 73.6879 6.47401 73.6879 8.40236C73.6879 10.3351 73.6584 14.4604 76.013 14.4604C78.3381 14.4604 78.4478 11.1324 78.4478 9.10437C78.4478 7.76969 78.393 6.17501 78.0005 4.90966C77.663 3.80899 76.992 3.37998 76.0383 3.37998Z" fill="#1D1E25"/>
<path fill-rule="evenodd" clip-rule="evenodd" d="M88.6472 17.3898H85.6596C85.36 17.3681 85.1194 17.1211 85.1194 16.8178L85.1152 1.00095C85.1406 0.710617 85.3895 0.485282 85.6933 0.485282H88.4742C88.7358 0.498274 88.951 0.680284 89.0101 0.927287V3.34531H89.065C89.9047 1.18296 91.082 0.151611 93.1539 0.151611C94.5 0.151611 95.8124 0.64995 96.6563 2.01496C97.4412 3.28031 97.4412 5.408 97.4412 6.93768V16.8914C97.4075 17.1688 97.1585 17.3898 96.8631 17.3898H93.8544C93.5801 17.3681 93.3523 17.1601 93.3227 16.8914V8.30269C93.3227 6.57368 93.5168 4.04298 91.4449 4.04298C90.7149 4.04298 90.0439 4.54566 89.7106 5.30833C89.2886 6.27467 89.2337 7.23668 89.2337 8.30269V16.8178C89.2295 17.1341 88.9679 17.3898 88.6472 17.3898" fill="#1D1E25"/>
<path fill-rule="evenodd" clip-rule="evenodd" d="M48.6732 9.83677C48.6732 11.0371 48.7028 12.0381 48.112 13.1041C47.6352 13.9708 46.8756 14.5038 46.0359 14.5038C44.8839 14.5038 44.2087 13.6025 44.2087 12.2721C44.2087 9.6461 46.5 9.16943 48.6732 9.16943V9.83677ZM51.6988 17.3465C51.5005 17.5285 51.2135 17.5415 50.9899 17.4202C49.994 16.5708 49.8126 16.1765 49.2682 15.3662C47.6225 17.0908 46.4536 17.6065 44.3226 17.6065C41.795 17.6065 39.8328 16.0075 39.8328 12.8051C39.8328 10.3048 41.1493 8.60176 43.0314 7.76975C44.6602 7.03307 46.9347 6.90307 48.6732 6.69941V6.30073C48.6732 5.56839 48.7281 4.70171 48.3061 4.06905C47.9432 3.50137 47.2427 3.26737 46.6224 3.26737C45.4788 3.26737 44.4619 3.86971 44.2129 5.11772C44.1623 5.39506 43.9639 5.66806 43.6897 5.68106L40.7822 5.36039C40.5375 5.30406 40.2632 5.10039 40.3349 4.71472C41.0016 1.09201 44.1918 0 47.0444 0C48.5044 0 50.4118 0.398672 51.5638 1.53402C53.0238 2.9337 52.8846 4.80138 52.8846 6.83374V11.6351C52.8846 13.0781 53.4669 13.7108 54.0155 14.4908C54.2054 14.7682 54.2476 15.1018 54.0028 15.3098C53.3909 15.8342 52.3022 16.8092 51.703 17.3552L51.6988 17.3465" fill="#1D1E25"/>
<path fill-rule="evenodd" clip-rule="evenodd" d="M9.34046 9.83701C9.34046 11.0374 9.36999 12.0384 8.77922 13.1044C8.30238 13.9711 7.54704 14.5041 6.70309 14.5041C5.55108 14.5041 4.88014 13.6027 4.88014 12.2724C4.88014 9.64634 7.17148 9.16967 9.34046 9.16967V9.83701ZM12.366 17.3468C12.1677 17.5288 11.8808 17.5418 11.6571 17.4204C10.6612 16.5711 10.484 16.1767 9.93544 15.3664C8.28973 17.0911 7.12507 17.6068 4.98985 17.6068C2.46642 17.6068 0.5 16.0077 0.5 12.8054C0.5 10.305 1.82079 8.602 3.6986 7.76999C5.32744 7.03332 7.6019 6.90332 9.34046 6.69965V6.30098C9.34046 5.56863 9.39531 4.70196 8.97755 4.06929C8.61043 3.50161 7.90995 3.26761 7.29386 3.26761C6.1503 3.26761 5.12911 3.86995 4.88014 5.11796C4.8295 5.3953 4.63117 5.6683 4.36111 5.6813L1.44945 5.36063C1.2047 5.3043 0.934637 5.10063 1.00215 4.71496C1.6731 1.09226 4.85904 0.000244141 7.71162 0.000244141C9.17166 0.000244141 11.079 0.398916 12.231 1.53426C13.6911 2.93394 13.5518 4.80163 13.5518 6.83398V11.6354C13.5518 13.0784 14.1341 13.7111 14.6827 14.4911C14.8768 14.7684 14.919 15.1021 14.6743 15.3101C14.0624 15.8344 12.9737 16.8094 12.3745 17.3554L12.366 17.3467" fill="#1D1E25"/>
</g>
<defs>
<clipPath id="clip0_1_2683">
<rect width="96.9412" height="30" fill="white" transform="translate(0.5)"/>
</clipPath>
</defs>
</svg>
