<svg width="106" height="14" viewBox="0 0 106 14" fill="none" xmlns="http://www.w3.org/2000/svg">
<path d="M7.48011 4.71023C7.43466 4.25189 7.23958 3.89583 6.89489 3.64205C6.55019 3.38826 6.08239 3.26136 5.49148 3.26136C5.08996 3.26136 4.75095 3.31818 4.47443 3.43182C4.19792 3.54167 3.9858 3.69508 3.83807 3.89205C3.69413 4.08902 3.62216 4.3125 3.62216 4.5625C3.61458 4.77083 3.65814 4.95265 3.75284 5.10795C3.85133 5.26326 3.9858 5.39773 4.15625 5.51136C4.3267 5.62121 4.52367 5.7178 4.74716 5.80114C4.97064 5.88068 5.20928 5.94886 5.46307 6.00568L6.50852 6.25568C7.0161 6.36932 7.48201 6.52083 7.90625 6.71023C8.33049 6.89962 8.69792 7.13258 9.00852 7.40909C9.31913 7.68561 9.55966 8.01136 9.73011 8.38636C9.90436 8.76136 9.99337 9.19129 9.99716 9.67614C9.99337 10.3883 9.81155 11.0057 9.4517 11.5284C9.09564 12.0473 8.58049 12.4508 7.90625 12.7386C7.2358 13.0227 6.42708 13.1648 5.48011 13.1648C4.54072 13.1648 3.72254 13.0208 3.02557 12.733C2.33239 12.4451 1.79072 12.0189 1.40057 11.4545C1.0142 10.8864 0.811553 10.1837 0.792614 9.34659H3.1733C3.19981 9.73674 3.31155 10.0625 3.50852 10.3239C3.70928 10.5814 3.97633 10.7765 4.30966 10.9091C4.64678 11.0379 5.02746 11.1023 5.4517 11.1023C5.86837 11.1023 6.23011 11.0417 6.53693 10.9205C6.84754 10.7992 7.08807 10.6307 7.25852 10.4148C7.42898 10.1989 7.5142 9.95076 7.5142 9.67045C7.5142 9.40909 7.43655 9.18939 7.28125 9.01136C7.12973 8.83333 6.90625 8.68182 6.6108 8.55682C6.31913 8.43182 5.96117 8.31818 5.53693 8.21591L4.26989 7.89773C3.28883 7.65909 2.5142 7.28598 1.94602 6.77841C1.37784 6.27083 1.09564 5.58712 1.09943 4.72727C1.09564 4.02273 1.28314 3.4072 1.66193 2.88068C2.04451 2.35417 2.56913 1.94318 3.2358 1.64773C3.90246 1.35227 4.66004 1.20455 5.50852 1.20455C6.37216 1.20455 7.12595 1.35227 7.76989 1.64773C8.41761 1.94318 8.9214 2.35417 9.28125 2.88068C9.6411 3.4072 9.8267 4.01705 9.83807 4.71023H7.48011ZM15.5838 13.1705C14.6861 13.1705 13.9134 12.9886 13.2656 12.625C12.6217 12.2576 12.1255 11.7386 11.777 11.0682C11.4285 10.3939 11.2543 9.59659 11.2543 8.67614C11.2543 7.77841 11.4285 6.99053 11.777 6.3125C12.1255 5.63447 12.616 5.10606 13.2486 4.72727C13.8849 4.34848 14.6312 4.15909 15.4872 4.15909C16.063 4.15909 16.599 4.25189 17.0952 4.4375C17.5952 4.61932 18.0308 4.89394 18.402 5.26136C18.777 5.62879 19.0687 6.09091 19.277 6.64773C19.4853 7.20076 19.5895 7.84848 19.5895 8.59091V9.25568H12.2202V7.75568H17.3111C17.3111 7.4072 17.2353 7.09848 17.0838 6.82955C16.9323 6.56061 16.7221 6.35038 16.4531 6.19886C16.188 6.04356 15.8793 5.96591 15.527 5.96591C15.1596 5.96591 14.8338 6.05114 14.5497 6.22159C14.2694 6.38826 14.0497 6.61364 13.8906 6.89773C13.7315 7.17803 13.6501 7.49053 13.6463 7.83523V9.26136C13.6463 9.69318 13.7259 10.0663 13.8849 10.3807C14.0478 10.6951 14.277 10.9375 14.5724 11.108C14.8679 11.2784 15.2183 11.3636 15.6236 11.3636C15.8925 11.3636 16.1387 11.3258 16.3622 11.25C16.5857 11.1742 16.777 11.0606 16.9361 10.9091C17.0952 10.7576 17.2164 10.572 17.2997 10.3523L19.5384 10.5C19.4247 11.0379 19.1918 11.5076 18.8395 11.9091C18.491 12.3068 18.0402 12.6174 17.4872 12.8409C16.938 13.0606 16.3035 13.1705 15.5838 13.1705ZM25.1463 13.1705C24.2486 13.1705 23.4759 12.9886 22.8281 12.625C22.1842 12.2576 21.688 11.7386 21.3395 11.0682C20.991 10.3939 20.8168 9.59659 20.8168 8.67614C20.8168 7.77841 20.991 6.99053 21.3395 6.3125C21.688 5.63447 22.1785 5.10606 22.8111 4.72727C23.4474 4.34848 24.1937 4.15909 25.0497 4.15909C25.6255 4.15909 26.1615 4.25189 26.6577 4.4375C27.1577 4.61932 27.5933 4.89394 27.9645 5.26136C28.3395 5.62879 28.6312 6.09091 28.8395 6.64773C29.0478 7.20076 29.152 7.84848 29.152 8.59091V9.25568H21.7827V7.75568H26.8736C26.8736 7.4072 26.7978 7.09848 26.6463 6.82955C26.4948 6.56061 26.2846 6.35038 26.0156 6.19886C25.7505 6.04356 25.4418 5.96591 25.0895 5.96591C24.7221 5.96591 24.3963 6.05114 24.1122 6.22159C23.8319 6.38826 23.6122 6.61364 23.4531 6.89773C23.294 7.17803 23.2126 7.49053 23.2088 7.83523V9.26136C23.2088 9.69318 23.2884 10.0663 23.4474 10.3807C23.6103 10.6951 23.8395 10.9375 24.1349 11.108C24.4304 11.2784 24.7808 11.3636 25.1861 11.3636C25.455 11.3636 25.7012 11.3258 25.9247 11.25C26.1482 11.1742 26.3395 11.0606 26.4986 10.9091C26.6577 10.7576 26.7789 10.572 26.8622 10.3523L29.1009 10.5C28.9872 11.0379 28.7543 11.5076 28.402 11.9091C28.0535 12.3068 27.6027 12.6174 27.0497 12.8409C26.5005 13.0606 25.866 13.1705 25.1463 13.1705ZM38.6051 13H34.4801V1.36364H38.6392C39.8097 1.36364 40.8172 1.59659 41.6619 2.0625C42.5066 2.52462 43.1563 3.18939 43.6108 4.05682C44.0691 4.92424 44.2983 5.96212 44.2983 7.17045C44.2983 8.38258 44.0691 9.42424 43.6108 10.2955C43.1563 11.1667 42.5028 11.8352 41.6506 12.3011C40.8021 12.767 39.7869 13 38.6051 13ZM36.9403 10.892H38.5028C39.2301 10.892 39.8419 10.7633 40.3381 10.5057C40.8381 10.2443 41.2131 9.84091 41.4631 9.29545C41.7169 8.74621 41.8438 8.03788 41.8438 7.17045C41.8438 6.31061 41.7169 5.60795 41.4631 5.0625C41.2131 4.51705 40.84 4.11553 40.3438 3.85795C39.8475 3.60038 39.2358 3.47159 38.5085 3.47159H36.9403V10.892ZM50.0526 13.1705C49.1548 13.1705 48.3821 12.9886 47.7344 12.625C47.0904 12.2576 46.5942 11.7386 46.2457 11.0682C45.8973 10.3939 45.723 9.59659 45.723 8.67614C45.723 7.77841 45.8973 6.99053 46.2457 6.3125C46.5942 5.63447 47.0848 5.10606 47.7173 4.72727C48.3537 4.34848 49.0999 4.15909 49.956 4.15909C50.5317 4.15909 51.0677 4.25189 51.5639 4.4375C52.0639 4.61932 52.4995 4.89394 52.8707 5.26136C53.2457 5.62879 53.5374 6.09091 53.7457 6.64773C53.9541 7.20076 54.0582 7.84848 54.0582 8.59091V9.25568H46.6889V7.75568H51.7798C51.7798 7.4072 51.7041 7.09848 51.5526 6.82955C51.401 6.56061 51.1908 6.35038 50.9219 6.19886C50.6567 6.04356 50.348 5.96591 49.9957 5.96591C49.6283 5.96591 49.3026 6.05114 49.0185 6.22159C48.7382 6.38826 48.5185 6.61364 48.3594 6.89773C48.2003 7.17803 48.1188 7.49053 48.1151 7.83523V9.26136C48.1151 9.69318 48.1946 10.0663 48.3537 10.3807C48.5166 10.6951 48.7457 10.9375 49.0412 11.108C49.3366 11.2784 49.687 11.3636 50.0923 11.3636C50.3613 11.3636 50.6075 11.3258 50.831 11.25C51.0545 11.1742 51.2457 11.0606 51.4048 10.9091C51.5639 10.7576 51.6851 10.572 51.7685 10.3523L54.0071 10.5C53.8935 11.0379 53.6605 11.5076 53.3082 11.9091C52.9598 12.3068 52.509 12.6174 51.956 12.8409C51.4067 13.0606 50.7723 13.1705 50.0526 13.1705ZM60.2798 4.27273V6.09091H55.0241V4.27273H60.2798ZM56.2173 2.18182H58.6378V10.3182C58.6378 10.5417 58.6719 10.7159 58.7401 10.8409C58.8082 10.9621 58.9029 11.0473 59.0241 11.0966C59.1491 11.1458 59.2931 11.1705 59.456 11.1705C59.5696 11.1705 59.6832 11.161 59.7969 11.142C59.9105 11.1193 59.9976 11.1023 60.0582 11.0909L60.4389 12.892C60.3177 12.9299 60.1473 12.9735 59.9276 13.0227C59.7079 13.0758 59.4408 13.108 59.1264 13.1193C58.5431 13.142 58.0317 13.0644 57.5923 12.8864C57.1567 12.7083 56.8177 12.4318 56.5753 12.0568C56.3329 11.6818 56.2135 11.2083 56.2173 10.6364V2.18182ZM64.3452 13.1648C63.7884 13.1648 63.2921 13.0682 62.8565 12.875C62.4209 12.678 62.0762 12.3883 61.8224 12.0057C61.5724 11.6193 61.4474 11.1383 61.4474 10.5625C61.4474 10.0777 61.5365 9.67045 61.7145 9.34091C61.8925 9.01136 62.1349 8.74621 62.4418 8.54545C62.7486 8.3447 63.0971 8.19318 63.4872 8.09091C63.8812 7.98864 64.294 7.91667 64.7259 7.875C65.2334 7.82197 65.6425 7.77273 65.9531 7.72727C66.2637 7.67803 66.4891 7.60606 66.6293 7.51136C66.7694 7.41667 66.8395 7.27652 66.8395 7.09091V7.05682C66.8395 6.69697 66.7259 6.41856 66.4986 6.22159C66.2751 6.02462 65.9569 5.92614 65.544 5.92614C65.1084 5.92614 64.7618 6.02273 64.5043 6.21591C64.2467 6.4053 64.0762 6.64394 63.9929 6.93182L61.7543 6.75C61.8679 6.2197 62.0914 5.76136 62.4247 5.375C62.758 4.98485 63.188 4.68561 63.7145 4.47727C64.2448 4.26515 64.8584 4.15909 65.5554 4.15909C66.0402 4.15909 66.5043 4.21591 66.9474 4.32955C67.3944 4.44318 67.7902 4.61932 68.1349 4.85795C68.4834 5.09659 68.758 5.40341 68.9588 5.77841C69.1596 6.14962 69.2599 6.5947 69.2599 7.11364V13H66.9645V11.7898H66.8963C66.7562 12.0625 66.5687 12.303 66.3338 12.5114C66.099 12.7159 65.8168 12.8769 65.4872 12.9943C65.1577 13.108 64.777 13.1648 64.3452 13.1648ZM65.0384 11.4943C65.3944 11.4943 65.7088 11.4242 65.9815 11.2841C66.2543 11.1402 66.4683 10.947 66.6236 10.7045C66.7789 10.4621 66.8565 10.1875 66.8565 9.88068V8.95455C66.7808 9.00379 66.6766 9.04924 66.544 9.09091C66.4152 9.12879 66.2694 9.16477 66.1065 9.19886C65.9437 9.22917 65.7808 9.25758 65.6179 9.28409C65.455 9.30682 65.3073 9.32765 65.1747 9.34659C64.8906 9.38826 64.6425 9.45455 64.4304 9.54545C64.2183 9.63636 64.0535 9.75947 63.9361 9.91477C63.8187 10.0663 63.7599 10.2557 63.7599 10.483C63.7599 10.8125 63.8793 11.0644 64.1179 11.2386C64.3603 11.4091 64.6671 11.4943 65.0384 11.4943ZM71.1378 13V4.27273H73.5582V13H71.1378ZM72.3537 3.14773C71.9938 3.14773 71.6851 3.02841 71.4276 2.78977C71.1738 2.54735 71.0469 2.25758 71.0469 1.92045C71.0469 1.58712 71.1738 1.30114 71.4276 1.0625C71.6851 0.820075 71.9938 0.698863 72.3537 0.698863C72.7135 0.698863 73.0204 0.820075 73.2741 1.0625C73.5317 1.30114 73.6605 1.58712 73.6605 1.92045C73.6605 2.25758 73.5317 2.54735 73.2741 2.78977C73.0204 3.02841 72.7135 3.14773 72.3537 3.14773ZM77.9176 1.36364V13H75.4972V1.36364H77.9176ZM87.1179 6.76136L84.902 6.89773C84.8641 6.70833 84.7827 6.53788 84.6577 6.38636C84.5327 6.23106 84.3679 6.10795 84.1634 6.01705C83.9626 5.92235 83.7221 5.875 83.4418 5.875C83.0668 5.875 82.7505 5.95455 82.4929 6.11364C82.2353 6.26894 82.1065 6.47727 82.1065 6.73864C82.1065 6.94697 82.1899 7.12311 82.3565 7.26705C82.5232 7.41098 82.8092 7.52652 83.2145 7.61364L84.794 7.93182C85.6425 8.10606 86.2751 8.38636 86.6918 8.77273C87.1084 9.15909 87.3168 9.66667 87.3168 10.2955C87.3168 10.8674 87.1482 11.3693 86.8111 11.8011C86.4777 12.233 86.0194 12.5701 85.4361 12.8125C84.8565 13.0511 84.188 13.1705 83.4304 13.1705C82.2751 13.1705 81.3546 12.9299 80.669 12.4489C79.9872 11.964 79.5876 11.3049 79.4702 10.4716L81.8509 10.3466C81.9228 10.6989 82.0971 10.9678 82.3736 11.1534C82.6501 11.3352 83.0043 11.4261 83.4361 11.4261C83.8603 11.4261 84.2012 11.3447 84.4588 11.1818C84.7202 11.0152 84.8527 10.8011 84.8565 10.5398C84.8527 10.3201 84.7599 10.1402 84.5781 10C84.3963 9.85606 84.116 9.74621 83.7372 9.67045L82.2259 9.36932C81.3736 9.19886 80.7391 8.90341 80.3224 8.48295C79.9096 8.0625 79.7031 7.52652 79.7031 6.875C79.7031 6.31439 79.8546 5.83144 80.1577 5.42614C80.4645 5.02083 80.8944 4.70833 81.4474 4.48864C82.0043 4.26894 82.6558 4.15909 83.402 4.15909C84.5043 4.15909 85.3717 4.39205 86.0043 4.85795C86.6406 5.32386 87.0118 5.95833 87.1179 6.76136ZM99.544 13.6364L98.2259 12.3295L101.686 8.86932H93.5781V6.94886H101.686L98.2259 3.49432L99.544 2.18182L105.271 7.90909L99.544 13.6364Z" fill="white"/>
</svg>
