<svg width="95" height="30" viewBox="0 0 95 30" fill="none" xmlns="http://www.w3.org/2000/svg">
<g clip-path="url(#clip0_1_2694)">
<path d="M70.4307 28.2206L78.2797 19.5614L70.4307 10.9009H78.7122L82.5997 15.1076L86.3431 10.9009H94.3357L86.524 19.5256L94.4429 28.2206H86.1274L82.2752 23.9794L78.4593 28.2206H70.4307Z" fill="#FF6600"/>
<path d="M70.4306 7.01853H61.541V10.901H70.4306V16.7522H61.541V22.1229H70.4306V28.2208H55.0072V0.9375H70.4306V7.01853Z" fill="#FF6600"/>
<path d="M48.5009 0.9375V12.1031H48.4293C46.9889 10.4775 45.1892 9.91259 43.101 9.91259C38.8236 9.91259 35.6015 12.7677 34.4704 16.5425C33.1806 12.3832 29.8542 9.83464 24.9216 9.83464C20.9158 9.83464 17.7527 11.6001 16.1019 14.4769V10.9014H7.82203V7.01933H16.8577V0.9375H0.441162V28.2212H7.82203V16.7522H15.1788C14.9594 17.5947 14.8424 18.4967 14.8424 19.4486C14.8424 25.1399 19.2704 29.1332 24.9216 29.1332C29.6737 29.1332 32.8054 26.9427 34.4618 22.9489H28.1367C27.2811 24.1487 26.6321 24.505 24.9216 24.505C22.9381 24.505 21.2281 22.8059 21.2281 20.7917H34.1075C34.666 25.3122 38.2523 29.2108 43.1738 29.2108C45.2968 29.2108 47.2406 28.1854 48.4293 26.4541H48.5009V28.2204H55.0073V0.9375H48.5009ZM21.4335 16.8337C21.8439 15.1008 23.2127 13.9682 24.9216 13.9682C26.8027 13.9682 28.1019 15.0659 28.4436 16.8337C28.5877 16.8337 21.4335 16.8337 21.4335 16.8337ZM44.5525 24.0667C42.1541 24.0667 40.6638 21.8725 40.6638 19.5816C40.6638 17.1327 41.9601 14.7778 44.5525 14.7778C47.2405 14.7778 48.3114 17.1327 48.3114 19.5816C48.311 21.9039 47.1763 24.0667 44.5525 24.0667Z" fill="#652C8F"/>
</g>
<defs>
<clipPath id="clip0_1_2694">
<rect width="94.1176" height="28.125" fill="white" transform="translate(0.441162 0.9375)"/>
</clipPath>
</defs>
</svg>
