<svg width="50" height="50" viewBox="0 0 50 50" fill="none" xmlns="http://www.w3.org/2000/svg">
<rect x="49.5" y="49.5" width="49" height="49" rx="24.5" transform="rotate(-180 49.5 49.5)" fill="white"/>
<rect x="49.5" y="49.5" width="49" height="49" rx="24.5" transform="rotate(-180 49.5 49.5)" stroke="#CED1D8"/>
<path fill-rule="evenodd" clip-rule="evenodd" d="M24.7363 31.0364C24.3849 31.3879 23.815 31.3879 23.4636 31.0364L18.0636 25.6364C17.7121 25.285 17.7121 24.7151 18.0636 24.3637L23.4636 18.9637C23.815 18.6122 24.3849 18.6122 24.7363 18.9637C25.0878 19.3151 25.0878 19.885 24.7363 20.2364L20.8727 24.1L31.3 24.1C31.797 24.1 32.2 24.503 32.2 25C32.2 25.4971 31.797 25.9 31.3 25.9L20.8727 25.9L24.7363 29.7637C25.0878 30.1151 25.0878 30.685 24.7363 31.0364Z" fill="#CED1D8"/>
</svg>
