<svg width="50" height="50" viewBox="0 0 50 50" fill="none" xmlns="http://www.w3.org/2000/svg">
<rect width="50" height="50" rx="25" fill="#1D1E25"/>
<path fill-rule="evenodd" clip-rule="evenodd" d="M25.2637 18.9636C25.6151 18.6121 26.185 18.6121 26.5364 18.9636L31.9364 24.3636C32.2879 24.715 32.2879 25.2849 31.9364 25.6363L26.5364 31.0363C26.185 31.3878 25.6151 31.3878 25.2637 31.0363C24.9122 30.6849 24.9122 30.115 25.2637 29.7636L29.1273 25.9L18.7 25.9C18.203 25.9 17.8 25.497 17.8 25C17.8 24.5029 18.203 24.1 18.7 24.1H29.1273L25.2637 20.2363C24.9122 19.8849 24.9122 19.315 25.2637 18.9636Z" fill="white"/>
</svg>
