<svg width="40" height="40" viewBox="0 0 40 40" fill="none" xmlns="http://www.w3.org/2000/svg">
<path d="M14.9999 8.33333H11.6666C9.82564 8.33333 8.33325 9.82572 8.33325 11.6667V31.6667C8.33325 33.5076 9.82564 35 11.6666 35H28.3333C30.1742 35 31.6666 33.5076 31.6666 31.6667V11.6667C31.6666 9.82572 30.1742 8.33333 28.3333 8.33333H24.9999M14.9999 8.33333C14.9999 10.1743 16.4923 11.6667 18.3333 11.6667H21.6666C23.5075 11.6667 24.9999 10.1743 24.9999 8.33333M14.9999 8.33333C14.9999 6.49238 16.4923 5 18.3333 5H21.6666C23.5075 5 24.9999 6.49238 24.9999 8.33333M19.9999 20H24.9999M19.9999 26.6667H24.9999M14.9999 20H15.0166M14.9999 26.6667H15.0166" stroke="white" stroke-width="3" stroke-linecap="round"/>
</svg>
