<svg width="115" height="26" viewBox="0 0 115 26" fill="none" xmlns="http://www.w3.org/2000/svg">
<g clip-path="url(#clip0_1_2702)">
<path d="M40.6186 14.8516L39.9342 16.779H39.8772C39.7632 16.3444 39.554 15.683 39.2118 14.8894L35.5428 5.72518H31.9498V20.3313H34.3261V11.3182C34.3261 10.7513 34.3261 10.1089 34.3071 9.31529C34.2881 8.91849 34.2501 8.61617 34.2311 8.38942H34.2881C34.4022 8.95628 34.5353 9.37198 34.6303 9.63651L39.0407 20.2935H40.7137L45.0861 9.54204C45.1811 9.2964 45.2762 8.80512 45.3713 8.38942H45.4283C45.3713 9.46646 45.3332 10.4301 45.3142 11.0159V20.2746H47.8426V5.68739H44.3827L40.6186 14.8516ZM50.2379 9.80657H52.7093V20.2746H50.2379V9.80657ZM51.4926 5.38506C51.0744 5.38506 50.7322 5.53622 50.4471 5.80076C50.1619 6.06529 50.0098 6.40541 50.0098 6.82111C50.0098 7.21791 50.1619 7.55803 50.4471 7.82256C50.7322 8.0871 51.0744 8.21936 51.4926 8.21936C51.9109 8.21936 52.2721 8.0682 52.5382 7.82256C52.8234 7.55803 52.9755 7.21791 52.9755 6.82111C52.9755 6.4243 52.8234 6.08419 52.5382 5.80076C52.2911 5.53622 51.9299 5.38506 51.4926 5.38506ZM61.4732 9.7121C61.0169 9.61762 60.5416 9.56093 60.0854 9.56093C58.9638 9.56093 57.9372 9.80657 57.0817 10.2979C56.2263 10.7891 55.5419 11.4694 55.1046 12.3197C54.6484 13.1888 54.4203 14.1903 54.4203 15.3429C54.4203 16.3444 54.6484 17.2324 55.0856 18.0449C55.5229 18.8385 56.1312 19.481 56.9487 19.9156C57.7281 20.3502 58.6406 20.5769 59.6672 20.5769C60.8458 20.5769 61.8534 20.3313 62.6518 19.8778L62.6708 19.8589V17.5915L62.5758 17.667C62.2146 17.9316 61.7963 18.1583 61.3781 18.2906C60.9409 18.4417 60.5416 18.5173 60.1995 18.5173C59.2109 18.5173 58.4315 18.2339 57.8802 17.6104C57.3099 17.0057 57.0247 16.1743 57.0247 15.1351C57.0247 14.058 57.3099 13.2077 57.8992 12.5842C58.4885 11.9606 59.2679 11.6394 60.2185 11.6394C61.0169 11.6394 61.8344 11.904 62.5758 12.433L62.6708 12.5086V10.1089L62.6518 10.09C62.3286 9.95774 61.9674 9.80657 61.4732 9.7121ZM69.6287 9.63651C69.0203 9.63651 68.45 9.82547 67.9557 10.2223C67.5375 10.5624 67.2524 11.0537 67.0052 11.6394H66.9862V9.80657H64.5148V20.2746H66.9862V14.9272C66.9862 14.0202 67.1763 13.2644 67.5945 12.7165C68.0128 12.1496 68.5451 11.8662 69.1914 11.8662C69.4196 11.8662 69.6477 11.9229 69.9328 11.9606C70.199 12.0362 70.3891 12.1118 70.5222 12.2063L70.6172 12.2819V9.82547L70.5602 9.80657C70.3891 9.6932 70.0469 9.63651 69.6287 9.63651ZM76.3584 9.57983C74.6284 9.57983 73.2407 10.09 72.2711 11.0915C71.2826 12.0929 70.8073 13.4723 70.8073 15.2106C70.8073 16.8356 71.3016 18.1583 72.2521 19.122C73.2027 20.0667 74.4954 20.558 76.1113 20.558C77.8032 20.558 79.1529 20.0479 80.1225 19.0275C81.111 18.0072 81.5863 16.6467 81.5863 14.965C81.5863 13.3022 81.13 11.9795 80.1985 11.0159C79.305 10.0522 77.9933 9.57983 76.3584 9.57983ZM78.3355 17.6292C77.8792 18.215 77.1568 18.4984 76.2633 18.4984C75.3699 18.4984 74.6474 18.215 74.1342 17.5915C73.6209 17.0057 73.3737 16.1554 73.3737 15.0784C73.3737 13.9635 73.6399 13.1133 74.1342 12.5086C74.6474 11.904 75.3508 11.6016 76.2443 11.6016C77.1188 11.6016 77.8032 11.8851 78.2975 12.4708C78.7917 13.0566 79.0579 13.9069 79.0579 15.0217C79.0199 16.1554 78.8108 17.0435 78.3355 17.6292ZM87.0993 14.1525C86.3199 13.8313 85.8256 13.5856 85.5975 13.3778C85.4074 13.1888 85.3123 12.9243 85.3123 12.5842C85.3123 12.3008 85.4264 12.0173 85.7116 11.8284C85.9967 11.6394 86.3199 11.5449 86.7952 11.5449C87.2134 11.5449 87.6506 11.6205 88.0689 11.7339C88.4871 11.8473 88.8673 12.0173 89.1715 12.2441L89.2665 12.3197V10.0144L89.2095 9.99553C88.9243 9.88215 88.5441 9.76878 88.0879 9.67431C87.6316 9.59872 87.2134 9.56093 86.8712 9.56093C85.6926 9.56093 84.723 9.84436 83.9626 10.4679C83.2022 11.0537 82.841 11.8473 82.841 12.7731C82.841 13.2644 82.917 13.699 83.0881 14.058C83.2592 14.417 83.5064 14.7572 83.8485 15.0406C84.1907 15.3051 84.685 15.6074 85.3694 15.8909C85.9397 16.1365 86.3769 16.3255 86.6431 16.4766C86.9092 16.6278 87.0803 16.7979 87.2134 16.9301C87.3085 17.0813 87.3655 17.2702 87.3655 17.5159C87.3655 18.215 86.8332 18.5551 85.7496 18.5551C85.3314 18.5551 84.8941 18.4795 84.3808 18.3095C83.8675 18.1394 83.3923 17.8938 82.9931 17.6104L82.898 17.5348V19.9345L82.955 19.9534C83.3162 20.1234 83.7535 20.2368 84.2858 20.3691C84.8181 20.4635 85.2933 20.5391 85.7116 20.5391C86.9853 20.5391 88.0309 20.2557 88.7723 19.6322C89.5327 19.0275 89.9319 18.2528 89.9319 17.2513C89.9319 16.5522 89.7418 15.9287 89.3236 15.4563C88.7723 15.0028 88.0879 14.5304 87.0993 14.1525ZM96.4525 9.57983C94.7226 9.57983 93.3348 10.09 92.3652 11.0915C91.3957 12.0929 90.9014 13.4723 90.9014 15.2106C90.9014 16.8356 91.3957 18.1583 92.3462 19.122C93.2968 20.0667 94.5895 20.558 96.2054 20.558C97.8973 20.558 99.2471 20.0479 100.217 19.0275C101.205 18.0072 101.68 16.6467 101.68 14.965C101.68 13.3022 101.224 11.9795 100.293 11.0159C99.3991 10.0522 98.0874 9.57983 96.4525 9.57983ZM98.4106 17.6292C97.9543 18.215 97.2319 18.4984 96.3384 18.4984C95.4259 18.4984 94.7226 18.215 94.2093 17.5915C93.696 17.0057 93.4489 16.1554 93.4489 15.0784C93.4489 13.9635 93.715 13.1133 94.2093 12.5086C94.7226 11.904 95.4259 11.6016 96.3194 11.6016C97.1749 11.6016 97.8783 11.8851 98.3726 12.4708C98.8668 13.0566 99.133 13.9069 99.133 15.0217C99.133 16.1554 98.8859 17.0435 98.4106 17.6292ZM114.893 11.8284V9.80657H112.402V6.70774L112.326 6.72663L109.969 7.42576L109.912 7.44465V9.80657H106.186V8.4839C106.186 7.87925 106.338 7.40686 106.604 7.10454C106.87 6.80221 107.27 6.65105 107.764 6.65105C108.106 6.65105 108.467 6.72663 108.866 6.89669L108.961 6.95337V4.8182L108.904 4.79931C108.562 4.68593 108.106 4.61035 107.517 4.61035C106.775 4.61035 106.129 4.78041 105.54 5.06384C104.95 5.38506 104.513 5.81965 104.19 6.40541C103.867 6.97227 103.696 7.61471 103.696 8.35163V9.80657H101.966V11.8095H103.696V20.2746H106.186V11.8284H109.912V17.2136C109.912 19.4243 110.958 20.5391 113.049 20.5391C113.391 20.5391 113.752 20.4824 114.094 20.4258C114.455 20.3502 114.722 20.2557 114.874 20.1801L114.893 20.1612V18.1394L114.798 18.215C114.646 18.3095 114.513 18.3851 114.284 18.4417C114.094 18.4984 113.923 18.5173 113.79 18.5173C113.296 18.5173 112.954 18.404 112.707 18.1205C112.478 17.856 112.364 17.4214 112.364 16.779V11.8284H114.893Z" fill="#737373"/>
<path d="M0.0882568 0.8125H11.7417V12.3953H0.0882568V0.8125Z" fill="#F25022"/>
<path d="M12.9583 0.8125H24.6117V12.3953H12.9583V0.8125Z" fill="#7FBA00"/>
<path d="M0.0882568 13.6047H11.7417V25.1876H0.0882568V13.6047Z" fill="#00A4EF"/>
<path d="M12.9583 13.6047H24.6117V25.1876H12.9583V13.6047Z" fill="#FFB900"/>
</g>
<defs>
<clipPath id="clip0_1_2702">
<rect width="114.824" height="24.375" fill="white" transform="translate(0.0882568 0.8125)"/>
</clipPath>
</defs>
</svg>
