<svg width="32" height="32" viewBox="0 0 32 32" fill="none" xmlns="http://www.w3.org/2000/svg">
<path opacity="0.1" fill-rule="evenodd" clip-rule="evenodd" d="M0 16.0002C0 7.16369 7.16344 0.000244141 16 0.000244141C24.8366 0.000244141 32 7.16369 32 16.0002C32 24.8368 24.8366 32.0002 16 32.0002C7.16344 32.0002 0 24.8368 0 16.0002Z" fill="#161A34"/>
<path fill-rule="evenodd" clip-rule="evenodd" d="M16.0008 7.46692C13.6833 7.46692 13.3924 7.47705 12.4822 7.51848C11.5737 7.56008 10.9536 7.7039 10.4111 7.91492C9.84981 8.13288 9.37372 8.42444 8.8994 8.89893C8.42473 9.37325 8.13317 9.84934 7.9145 10.4104C7.70294 10.9532 7.55894 11.5735 7.51805 12.4815C7.47734 13.3918 7.46667 13.6828 7.46667 16.0003C7.46667 18.3179 7.47699 18.6078 7.51823 19.5181C7.56001 20.4265 7.70383 21.0466 7.91468 21.5892C8.13282 22.1504 8.42437 22.6265 8.89887 23.1009C9.37301 23.5755 9.8491 23.8678 10.41 24.0858C10.9529 24.2968 11.5732 24.4406 12.4815 24.4822C13.3917 24.5236 13.6824 24.5338 15.9997 24.5338C18.3175 24.5338 18.6074 24.5236 19.5176 24.4822C20.4261 24.4406 21.0469 24.2968 21.5898 24.0858C22.1509 23.8678 22.6263 23.5755 23.1004 23.1009C23.5751 22.6265 23.8667 22.1504 24.0853 21.5894C24.2951 21.0466 24.4391 20.4263 24.4818 19.5182C24.5227 18.608 24.5333 18.3179 24.5333 16.0003C24.5333 13.6828 24.5227 13.392 24.4818 12.4817C24.4391 11.5733 24.2951 10.9532 24.0853 10.4106C23.8667 9.84934 23.5751 9.37325 23.1004 8.89893C22.6258 8.42426 22.1511 8.1327 21.5893 7.91492C21.0453 7.7039 20.4249 7.56008 19.5164 7.51848C18.6062 7.47705 18.3164 7.46692 15.9981 7.46692H16.0008ZM15.2353 9.00469C15.4625 9.00433 15.716 9.00469 16.0008 9.00469C18.2792 9.00469 18.5492 9.01287 19.449 9.05376C20.281 9.0918 20.7326 9.23082 21.0334 9.34763C21.4316 9.50229 21.7155 9.68718 22.014 9.98585C22.3127 10.2845 22.4976 10.569 22.6526 10.9672C22.7694 11.2676 22.9086 11.7192 22.9464 12.5512C22.9873 13.4508 22.9962 13.721 22.9962 15.9984C22.9962 18.2757 22.9873 18.5459 22.9464 19.4455C22.9084 20.2775 22.7694 20.7291 22.6526 21.0295C22.4979 21.4278 22.3127 21.7113 22.014 22.0098C21.7153 22.3085 21.4318 22.4934 21.0334 22.648C20.7329 22.7654 20.281 22.904 19.449 22.9421C18.5494 22.983 18.2792 22.9919 16.0008 22.9919C13.7222 22.9919 13.4521 22.983 12.5526 22.9421C11.7205 22.9037 11.269 22.7647 10.968 22.6479C10.5698 22.4932 10.2853 22.3083 9.98666 22.0096C9.68799 21.711 9.5031 21.4272 9.34808 21.0288C9.23128 20.7284 9.09208 20.2768 9.05421 19.4448C9.01332 18.5452 9.00514 18.275 9.00514 15.9962C9.00514 13.7174 9.01332 13.4486 9.05421 12.5491C9.09226 11.7171 9.23128 11.2655 9.34808 10.9647C9.50275 10.5665 9.68799 10.282 9.98666 9.98337C10.2853 9.6847 10.5698 9.4998 10.968 9.34478C11.2688 9.22745 11.7205 9.08878 12.5526 9.05056C13.3398 9.015 13.6448 9.00433 15.2353 9.00256V9.00469ZM20.5558 10.4216C19.9905 10.4216 19.5318 10.8797 19.5318 11.4453C19.5318 12.0106 19.9905 12.4693 20.5558 12.4693C21.1212 12.4693 21.5799 12.0106 21.5799 11.4453C21.5799 10.8799 21.1212 10.4216 20.5558 10.4216ZM16.0008 11.6181C13.5807 11.6181 11.6186 13.5802 11.6186 16.0003C11.6186 18.4204 13.5807 20.3817 16.0008 20.3817C18.4209 20.3817 20.3824 18.4204 20.3824 16.0003C20.3824 13.5802 18.4209 11.6181 16.0008 11.6181ZM16.0008 13.1558C17.5717 13.1558 18.8453 14.4293 18.8453 16.0003C18.8453 17.5712 17.5717 18.8448 16.0008 18.8448C14.4298 18.8448 13.1563 17.5712 13.1563 16.0003C13.1563 14.4293 14.4298 13.1558 16.0008 13.1558Z" fill="#161A34"/>
</svg>
