<svg width="32" height="32" viewBox="0 0 32 32" fill="none" xmlns="http://www.w3.org/2000/svg">
<path opacity="0.1" fill-rule="evenodd" clip-rule="evenodd" d="M0 16.0002C0 7.16369 7.16344 0.000244141 16 0.000244141C24.8366 0.000244141 32 7.16369 32 16.0002C32 24.8368 24.8366 32.0002 16 32.0002C7.16344 32.0002 0 24.8368 0 16.0002Z" fill="#161A34"/>
<path d="M11.5459 9.88204C11.5223 8.81385 10.7584 8.00024 9.51803 8.00024C8.27761 8.00024 7.46667 8.81385 7.46667 9.88204C7.46667 10.9281 8.25365 11.7651 9.47096 11.7651H9.49413C10.7584 11.7651 11.5459 10.9281 11.5459 9.88204Z" fill="#161A34"/>
<path d="M11.307 13.2522H7.68109V24.1467H11.307V13.2522Z" fill="#161A34"/>
<path d="M20.2088 12.9963C22.5948 12.9963 24.3836 14.5538 24.3836 17.9001L24.3835 24.1466H20.7577V18.3181C20.7577 16.8541 20.233 15.8551 18.9204 15.8551C17.9186 15.8551 17.3219 16.5286 17.0599 17.179C16.964 17.4121 16.9405 17.737 16.9405 18.0626V24.1469H13.3141C13.3141 24.1469 13.3619 14.2747 13.3141 13.2525H16.9405V14.7956C17.4217 14.0538 18.2836 12.9963 20.2088 12.9963Z" fill="#161A34"/>
</svg>
