<svg width="32" height="32" viewBox="0 0 32 32" fill="none" xmlns="http://www.w3.org/2000/svg">
<path opacity="0.1" fill-rule="evenodd" clip-rule="evenodd" d="M0 16.0002C0 7.16369 7.16344 0.000244141 16 0.000244141C24.8366 0.000244141 32 7.16369 32 16.0002C32 24.8368 24.8366 32.0002 16 32.0002C7.16344 32.0002 0 24.8368 0 16.0002Z" fill="#161A34"/>
<path fill-rule="evenodd" clip-rule="evenodd" d="M15.5208 13.0052L15.5544 13.5589L14.9948 13.4911C12.9579 13.2312 11.1784 12.3499 9.66756 10.8698L8.92891 10.1354L8.73865 10.6777C8.33575 11.8866 8.59316 13.1634 9.43253 14.0221C9.8802 14.4966 9.77948 14.5644 9.00725 14.282C8.73865 14.1916 8.50363 14.1238 8.48124 14.1577C8.4029 14.2368 8.6715 15.265 8.88414 15.6717C9.17513 16.2366 9.76828 16.7903 10.4174 17.1179L10.9658 17.3778L10.3167 17.3891C9.68994 17.3891 9.66756 17.4004 9.73471 17.6377C9.95854 18.3721 10.8427 19.1517 11.8276 19.4907L12.5214 19.7279L11.9171 20.0895C11.0218 20.6092 9.96973 20.903 8.91772 20.9256C8.41409 20.9369 8 20.9821 8 21.016C8 21.129 9.36538 21.7617 10.16 22.0103C12.5438 22.7447 15.3753 22.4283 17.5017 21.1742C19.0126 20.2816 20.5235 18.5077 21.2286 16.7903C21.6091 15.8751 21.9896 14.2029 21.9896 13.4007C21.9896 12.8809 22.0232 12.8131 22.6499 12.1917C23.0192 11.8302 23.3662 11.4347 23.4333 11.3217C23.5452 11.107 23.534 11.107 22.9633 11.2991C22.012 11.6381 21.8777 11.5929 22.3477 11.0844C22.6947 10.7229 23.1088 10.0676 23.1088 9.87548C23.1088 9.84159 22.9409 9.89808 22.7506 9.99977C22.5492 10.1128 22.1015 10.2822 21.7658 10.3839L21.1614 10.576L20.613 10.2031C20.3108 9.99977 19.8856 9.77379 19.6617 9.706C19.0909 9.54782 18.218 9.57042 17.7032 9.7512C16.3042 10.2596 15.4201 11.5703 15.5208 13.0052Z" fill="#161A34"/>
</svg>
