<svg width="81" height="30" viewBox="0 0 81 30" fill="none" xmlns="http://www.w3.org/2000/svg">
<g clip-path="url(#clip0_1_2732)">
<path d="M65.9719 28.725C73.4809 28.725 79.5909 22.5405 79.5909 14.94C79.5909 7.33503 73.4809 1.15503 65.9719 1.15503C58.4613 1.15503 52.3529 7.33503 52.3529 14.94C52.3529 22.5405 58.4613 28.725 65.9719 28.725ZM65.9719 10.0245C68.6479 10.0245 70.8273 12.2295 70.8273 14.9385C70.8273 17.6475 68.6464 19.8495 65.9704 19.8495C63.2928 19.8495 61.1164 17.6475 61.1164 14.937C61.1164 12.225 63.2943 10.0215 65.9704 10.0215L65.9719 10.0245ZM14.5896 28.725C22.0987 28.725 28.2086 22.5405 28.2086 14.94C28.2086 7.33503 22.0987 1.15503 14.5896 1.15503C7.08198 1.15503 0.970581 7.33503 0.970581 14.94C0.970581 22.5405 7.08198 28.725 14.5896 28.725ZM14.5896 10.0245C17.2671 10.0245 19.445 12.2295 19.445 14.9385C19.445 17.6475 17.2671 19.8495 14.5896 19.8495C11.9135 19.8495 9.73716 17.6475 9.73716 14.937C9.73716 12.225 11.915 10.0215 14.5896 10.0215V10.0245ZM40.2733 9.71403L36.0921 1.33503H26.3022L35.4462 19.665V28.2945H45.1018V19.665L54.2458 1.33503H44.4514L40.2748 9.71403H40.2733Z" fill="#EE2E24"/>
</g>
<defs>
<clipPath id="clip0_1_2732">
<rect width="79.0588" height="30" fill="white" transform="translate(0.970581)"/>
</clipPath>
</defs>
</svg>
