<svg width="164" height="26" viewBox="0 0 164 26" fill="none" xmlns="http://www.w3.org/2000/svg">
<path fill-rule="evenodd" clip-rule="evenodd" d="M11.227 3.79648L13.2574 8.09148C13.4564 8.51312 13.8405 8.8055 14.2859 8.87316L18.8282 9.56543C19.9504 9.73699 20.397 11.1771 19.5848 12.0023L16.3002 15.344C15.9774 15.6727 15.8305 16.1451 15.9068 16.609L16.682 21.3268C16.8729 22.4939 15.6997 23.3843 14.6967 22.8322L10.6369 20.6032C10.2389 20.3845 9.76225 20.3845 9.3631 20.6032L5.30334 22.8322C4.30026 23.3843 3.1271 22.4939 3.31916 21.3268L4.09316 16.609C4.16952 16.1451 4.02259 15.6727 3.6998 15.344L0.4152 12.0023C-0.396983 11.1771 0.0496019 9.73699 1.17185 9.56543L5.71406 8.87316C6.15949 8.8055 6.54475 8.51312 6.74375 8.09148L8.77305 3.79648C9.27517 2.73451 10.7248 2.73451 11.227 3.79648Z" fill="#FFD33C"/>
<path fill-rule="evenodd" clip-rule="evenodd" d="M39.227 3.79648L41.2574 8.09148C41.4564 8.51312 41.8405 8.8055 42.2859 8.87316L46.8282 9.56543C47.9504 9.73699 48.397 11.1771 47.5848 12.0023L44.3002 15.344C43.9774 15.6727 43.8305 16.1451 43.9068 16.609L44.682 21.3268C44.8729 22.4939 43.6997 23.3843 42.6967 22.8322L38.6369 20.6032C38.2389 20.3845 37.7622 20.3845 37.3631 20.6032L33.3033 22.8322C32.3003 23.3843 31.1271 22.4939 31.3192 21.3268L32.0932 16.609C32.1695 16.1451 32.0226 15.6727 31.6998 15.344L28.4152 12.0023C27.603 11.1771 28.0496 9.73699 29.1718 9.56543L33.7141 8.87316C34.1595 8.8055 34.5448 8.51312 34.7437 8.09148L36.773 3.79648C37.2752 2.73451 38.7248 2.73451 39.227 3.79648Z" fill="#FFD33C"/>
<path fill-rule="evenodd" clip-rule="evenodd" d="M67.227 3.79648L69.2574 8.09148C69.4564 8.51312 69.8405 8.8055 70.2859 8.87316L74.8282 9.56543C75.9504 9.73699 76.397 11.1771 75.5848 12.0023L72.3002 15.344C71.9774 15.6727 71.8305 16.1451 71.9068 16.609L72.682 21.3268C72.8729 22.4939 71.6997 23.3843 70.6967 22.8322L66.6369 20.6032C66.2389 20.3845 65.7622 20.3845 65.3631 20.6032L61.3033 22.8322C60.3003 23.3843 59.1271 22.4939 59.3192 21.3268L60.0932 16.609C60.1695 16.1451 60.0226 15.6727 59.6998 15.344L56.4152 12.0023C55.603 11.1771 56.0496 9.73699 57.1718 9.56543L61.7141 8.87316C62.1595 8.8055 62.5448 8.51312 62.7437 8.09148L64.773 3.79648C65.2752 2.73451 66.7248 2.73451 67.227 3.79648Z" fill="#FFD33C"/>
<path fill-rule="evenodd" clip-rule="evenodd" d="M95.227 3.79648L97.2574 8.09148C97.4564 8.51312 97.8405 8.8055 98.2859 8.87316L102.828 9.56543C103.95 9.73699 104.397 11.1771 103.585 12.0023L100.3 15.344C99.9774 15.6727 99.8305 16.1451 99.9068 16.609L100.682 21.3268C100.873 22.4939 99.6997 23.3843 98.6967 22.8322L94.6369 20.6032C94.2389 20.3845 93.7622 20.3845 93.3631 20.6032L89.3033 22.8322C88.3003 23.3843 87.1271 22.4939 87.3192 21.3268L88.0932 16.609C88.1695 16.1451 88.0226 15.6727 87.6998 15.344L84.4152 12.0023C83.603 11.1771 84.0496 9.73699 85.1718 9.56543L89.7141 8.87316C90.1595 8.8055 90.5448 8.51312 90.7437 8.09148L92.773 3.79648C93.2752 2.73451 94.7248 2.73451 95.227 3.79648Z" fill="#FFD33C"/>
<path fill-rule="evenodd" clip-rule="evenodd" d="M123.227 3.79648L125.257 8.09148C125.456 8.51312 125.841 8.8055 126.286 8.87316L130.828 9.56543C131.95 9.73699 132.397 11.1771 131.585 12.0023L128.3 15.344C127.977 15.6727 127.83 16.1451 127.907 16.609L128.682 21.3268C128.873 22.4939 127.7 23.3843 126.697 22.8322L122.637 20.6032C122.239 20.3845 121.762 20.3845 121.363 20.6032L117.303 22.8322C116.3 23.3843 115.127 22.4939 115.319 21.3268L116.093 16.609C116.17 16.1451 116.023 15.6727 115.7 15.344L112.415 12.0023C111.603 11.1771 112.05 9.73699 113.172 9.56543L117.714 8.87316C118.159 8.8055 118.545 8.51312 118.744 8.09148L120.773 3.79648C121.275 2.73451 122.725 2.73451 123.227 3.79648Z" fill="#FFD33C"/>
<path d="M144.96 19.1591C144.248 19.1591 143.608 19.0227 143.04 18.75C142.475 18.4735 142.025 18.0947 141.688 17.6136C141.35 17.1326 141.17 16.5833 141.148 15.9659H142.852C142.894 16.4659 143.116 16.8769 143.517 17.1989C143.919 17.5208 144.4 17.6818 144.96 17.6818C145.407 17.6818 145.803 17.5795 146.148 17.375C146.496 17.1667 146.769 16.8807 146.966 16.517C147.167 16.1534 147.267 15.7386 147.267 15.2727C147.267 14.7992 147.165 14.3769 146.96 14.0057C146.756 13.6345 146.473 13.3428 146.114 13.1307C145.758 12.9186 145.348 12.8106 144.886 12.8068C144.534 12.8068 144.18 12.8674 143.824 12.9886C143.468 13.1098 143.18 13.2689 142.96 13.4659L141.352 13.2273L142.006 7.36364H148.403V8.86932H143.466L143.097 12.125H143.165C143.392 11.9053 143.693 11.7216 144.068 11.5739C144.447 11.4261 144.852 11.3523 145.284 11.3523C145.992 11.3523 146.623 11.5208 147.176 11.858C147.733 12.1951 148.17 12.6553 148.489 13.2386C148.811 13.8182 148.97 14.4848 148.966 15.2386C148.97 15.9924 148.799 16.6648 148.455 17.2557C148.114 17.8466 147.64 18.3125 147.034 18.6534C146.432 18.9905 145.741 19.1591 144.96 19.1591ZM151.761 19.108C151.451 19.108 151.184 18.9981 150.96 18.7784C150.737 18.5549 150.625 18.286 150.625 17.9716C150.625 17.661 150.737 17.3958 150.96 17.1761C151.184 16.9527 151.451 16.8409 151.761 16.8409C152.072 16.8409 152.339 16.9527 152.562 17.1761C152.786 17.3958 152.898 17.661 152.898 17.9716C152.898 18.1799 152.845 18.3712 152.739 18.5455C152.636 18.7159 152.5 18.8523 152.33 18.9545C152.159 19.0568 151.97 19.108 151.761 19.108ZM158.78 19.1932C157.882 19.1894 157.115 18.9527 156.479 18.483C155.842 18.0133 155.356 17.3295 155.018 16.4318C154.681 15.5341 154.513 14.4527 154.513 13.1875C154.513 11.9261 154.681 10.8485 155.018 9.95455C155.359 9.06061 155.848 8.37879 156.484 7.90909C157.125 7.43939 157.89 7.20455 158.78 7.20455C159.67 7.20455 160.433 7.44129 161.07 7.91477C161.706 8.38447 162.193 9.06629 162.53 9.96023C162.871 10.8504 163.041 11.9261 163.041 13.1875C163.041 14.4564 162.873 15.5398 162.536 16.4375C162.198 17.3314 161.712 18.0152 161.075 18.4886C160.439 18.9583 159.674 19.1932 158.78 19.1932ZM158.78 17.6761C159.568 17.6761 160.183 17.2917 160.626 16.5227C161.073 15.7538 161.297 14.642 161.297 13.1875C161.297 12.2216 161.195 11.4053 160.99 10.7386C160.789 10.0682 160.5 9.56061 160.121 9.21591C159.746 8.86742 159.299 8.69318 158.78 8.69318C157.996 8.69318 157.38 9.07954 156.933 9.85227C156.486 10.625 156.261 11.7367 156.257 13.1875C156.257 14.1572 156.357 14.9773 156.558 15.6477C156.763 16.3144 157.053 16.8201 157.428 17.1648C157.803 17.5057 158.253 17.6761 158.78 17.6761Z" fill="#1D1E25"/>
</svg>
