<svg width="113" height="28" viewBox="0 0 113 28" fill="none" xmlns="http://www.w3.org/2000/svg">
<g clip-path="url(#clip0_1_2727)">
<path d="M40.2221 10.2118V11.6994H40.268C40.8075 10.903 41.7031 9.96495 43.6882 9.96495C45.2326 9.96495 46.4173 10.745 46.925 11.9232H46.9709C47.4046 11.3275 47.9017 10.8766 48.4588 10.5574C49.1182 10.1789 49.8516 9.96166 50.7754 9.96166C52.8663 9.96166 54.7175 11.3111 54.7175 14.7142V21.1684H51.53V15.1651C51.53 13.4405 50.9024 12.4433 49.5977 12.4433C48.6422 12.4433 47.9476 13.0423 47.6831 13.7795C47.5915 14.0329 47.5491 14.3785 47.5491 14.6681V21.1717H44.3617V14.9216C44.3617 13.457 43.7587 12.44 42.4717 12.44C41.4421 12.44 40.7969 13.197 40.5324 13.8453C40.4196 14.1218 40.3843 14.441 40.3843 14.7406V21.1684H37.1933V10.2118H40.2221ZM71.1697 10.2118V12.2787H71.2579C71.8432 10.6989 73.2324 9.96495 74.4524 9.96495C74.7592 9.96495 74.9284 9.98799 75.1752 10.0341V12.904C74.8826 12.8645 74.6111 12.825 74.2303 12.825C72.8481 12.825 71.8855 13.5754 71.6422 14.7504C71.5893 14.994 71.5717 15.2573 71.5717 15.5601V21.1717H68.2996V10.2118H71.1697ZM79.618 6.58154V10.0308H82.3824V12.8218H79.618V16.9391C79.618 18.2721 79.9812 18.9171 81.0601 18.9171C81.5679 18.9171 81.9416 18.8579 82.266 18.7822L82.3083 21.096C81.8746 21.2474 80.9508 21.4119 80.0129 21.4119C78.9093 21.4119 77.989 21.0532 77.4284 20.497C76.7866 19.8617 76.4904 18.8217 76.4904 17.3406V6.58154H79.618ZM34.9719 21.1684H31.7986V6.58154H34.9719V21.1684ZM26.5096 17.2551C26.5096 17.4558 26.4919 17.6665 26.432 17.8475C26.1852 18.6078 25.3425 19.2496 24.2917 19.2496C23.4138 19.2496 22.7156 18.7855 22.7156 17.8014C22.7156 16.2973 24.4927 15.8793 26.5131 15.8892V17.2551H26.5096ZM29.6794 14.6319C29.6794 12.147 28.5441 9.96495 24.7043 9.96495C22.7332 9.96495 21.1677 10.4817 20.3144 10.9424L20.9385 12.9369C21.7178 12.4762 22.9624 12.0977 24.1401 12.0977C26.09 12.0944 26.4073 13.1278 26.4073 13.7894V13.9474C22.1585 13.9408 19.4752 15.3132 19.4752 18.1108C19.4752 19.819 20.8398 21.4185 23.2163 21.4185C24.6796 21.4185 25.8996 20.8754 26.633 20.0033H26.7035C26.7035 20.0033 27.1901 21.8957 29.8628 21.1717C29.7218 20.3818 29.6759 19.5425 29.6759 18.5321V14.6319H29.6794ZM3.53425 6.58154C3.86217 8.12514 4.79303 12.6078 4.79303 12.6078C5.18441 14.4509 5.54406 16.3829 5.81556 17.91H5.86493C6.12938 16.2874 6.54544 14.7504 6.98972 12.8481L8.55878 6.58154H12.0319L13.4987 13.0094C13.883 14.7965 14.1898 16.1755 14.4331 17.8376H14.4789C14.7434 16.1591 15.0889 14.7241 15.4662 12.8876L16.8766 6.58154H20.2086L16.0797 21.1684C13.4493 21.7048 12.4409 20.7175 12.0812 19.1508C11.7216 17.5809 11.0164 14.5957 11.0164 14.5957C10.6532 12.96 10.3711 11.808 10.1737 10.1295H10.1243C9.84224 11.7916 9.54606 12.9567 9.10883 14.5924L7.37758 21.1717C4.69077 21.6719 3.75991 20.9314 3.24512 18.9204C2.80084 17.1991 0.0294189 6.58483 0.0294189 6.58483H3.53425V6.58154ZM63.0106 17.2551C63.0106 17.4558 62.993 17.6665 62.933 17.8475C62.6862 18.6078 61.8435 19.2496 60.7927 19.2496C59.9148 19.2496 59.2166 18.7855 59.2166 17.8014C59.2166 16.2973 60.9937 15.8793 63.0141 15.8892V17.2551H63.0106ZM66.1805 14.6319C66.1805 12.147 65.0451 9.96495 61.2053 9.96495C59.2343 9.96495 57.6687 10.4817 56.8154 10.9424L57.4395 12.9369C58.2188 12.4762 59.4634 12.0977 60.6411 12.0977C62.5875 12.0944 62.9083 13.1278 62.9083 13.7894V13.9474C58.6631 13.9408 55.9798 15.3132 55.9798 18.1108C55.9798 19.819 57.3479 21.4185 59.7208 21.4185C61.1806 21.4185 62.4041 20.8754 63.134 20.0033H63.208C63.208 20.0033 63.6946 21.8957 66.3673 21.1717C66.2263 20.3818 66.1805 19.5425 66.1805 18.5321V14.6319Z" fill="#041E42"/>
<path d="M95.2462 16.1445C95.559 16.6772 95.5379 17.2718 95.204 17.5433L89.433 21.499C88.832 21.8393 87.9322 21.4268 87.4226 20.5642C86.9094 19.6982 87.0008 18.7324 87.6018 18.3922L93.9915 15.4847C94.3921 15.3335 94.9334 15.6118 95.2462 16.1445ZM102.841 16.1445C103.158 15.6118 103.695 15.3369 104.096 15.4812L110.489 18.3887C111.09 18.729 111.178 19.6947 110.669 20.5608C110.155 21.4234 109.252 21.8324 108.655 21.4956L102.884 17.5399C102.553 17.2718 102.529 16.6738 102.841 16.1445ZM99.042 18.2891C99.6712 18.2891 100.188 18.6053 100.258 19.0211L100.88 25.8878C100.88 26.5682 100.068 27.125 99.0456 27.125C98.0263 27.125 97.2109 26.5682 97.2109 25.8878L97.8295 19.0211C97.8998 18.6053 98.4164 18.2891 99.042 18.2891ZM102.884 10.4601L108.655 6.50098C109.252 6.16074 110.155 6.56972 110.669 7.43578C111.178 8.30185 111.09 9.26758 110.489 9.60782L104.096 12.5188C103.695 12.6631 103.154 12.3882 102.841 11.8555C102.529 11.3228 102.553 10.7282 102.884 10.4601ZM93.9915 12.5188L87.6018 9.60782C87.0043 9.26758 86.913 8.30185 87.4226 7.43578C87.9322 6.56972 88.8355 6.16074 89.433 6.50098L95.204 10.4601C95.5379 10.7248 95.559 11.3228 95.2462 11.8555C94.9334 12.3882 94.3921 12.6631 93.9915 12.5188ZM97.8295 8.97889L97.2109 2.11223C97.2109 1.43176 98.0228 0.875 99.0456 0.875C100.068 0.875 100.88 1.43176 100.88 2.11223L100.258 8.97889C100.188 9.3913 99.6712 9.71092 99.042 9.71092C98.4164 9.71092 97.8998 9.3913 97.8295 8.97889ZM112.229 21.4715V21.2997H112.387C112.44 21.2997 112.475 21.3341 112.475 21.3856C112.475 21.4337 112.44 21.4715 112.387 21.4715H112.229ZM112.099 21.7843C112.099 21.8015 112.113 21.8186 112.134 21.8186H112.201C112.218 21.8186 112.236 21.8015 112.236 21.7843V21.5884H112.345L112.433 21.7946C112.44 21.8083 112.45 21.8186 112.465 21.8186H112.545C112.57 21.8186 112.588 21.7946 112.577 21.7705C112.545 21.7087 112.514 21.6434 112.482 21.5781C112.535 21.5609 112.616 21.5093 112.616 21.3856C112.616 21.255 112.507 21.1794 112.398 21.1794H112.134C112.117 21.1794 112.099 21.1966 112.099 21.2138V21.7843ZM111.814 21.499C111.814 21.2206 112.046 20.9938 112.331 20.9938C112.616 20.9938 112.848 21.2172 112.848 21.499C112.848 21.7774 112.619 22.0042 112.331 22.0042C112.043 22.0042 111.814 21.7774 111.814 21.499ZM111.691 21.499C111.691 21.8427 111.976 22.1245 112.331 22.1245C112.682 22.1245 112.971 21.8427 112.971 21.499C112.971 21.1553 112.682 20.8735 112.331 20.8735C111.976 20.8735 111.691 21.1553 111.691 21.499Z" fill="#FFC124"/>
</g>
<defs>
<clipPath id="clip0_1_2727">
<rect width="112.941" height="26.25" fill="white" transform="translate(0.0294189 0.875)"/>
</clipPath>
</defs>
</svg>
